<mxfile host="Electron" agent="Mozilla/5.0 (Windows NT 10.0; Win64; x64) AppleWebKit/537.36 (KHTML, like Gecko) draw.io/24.7.17 Chrome/128.0.6613.36 Electron/32.0.1 Safari/537.36" version="24.7.17" pages="2">
  <diagram name="Page-1" id="UcBDglyqarHba0GVNBrx">
    <mxGraphModel dx="1106" dy="810" grid="1" gridSize="10" guides="1" tooltips="1" connect="1" arrows="1" fold="1" page="1" pageScale="1" pageWidth="850" pageHeight="1100" math="0" shadow="0">
      <root>
        <mxCell id="0" />
        <mxCell id="1" parent="0" />
        <mxCell id="z0mIs7tXJwanIsz5pD2i-3" value="" style="rounded=0;whiteSpace=wrap;html=1;" parent="1" vertex="1">
          <mxGeometry x="10" y="90" width="520" height="610" as="geometry" />
        </mxCell>
        <mxCell id="GA-WfOW43kbOKy0nqpqR-1" value="" style="rounded=1;whiteSpace=wrap;html=1;" parent="1" vertex="1">
          <mxGeometry x="90" y="150" width="10" height="520" as="geometry" />
        </mxCell>
        <mxCell id="GA-WfOW43kbOKy0nqpqR-2" value="" style="rounded=1;whiteSpace=wrap;html=1;" parent="1" vertex="1">
          <mxGeometry x="440" y="150" width="10" height="520" as="geometry" />
        </mxCell>
        <mxCell id="GA-WfOW43kbOKy0nqpqR-3" value="Rails" style="text;html=1;align=center;verticalAlign=middle;resizable=0;points=[];autosize=1;strokeColor=none;fillColor=none;" parent="1" vertex="1">
          <mxGeometry x="70" y="120" width="50" height="30" as="geometry" />
        </mxCell>
        <mxCell id="GA-WfOW43kbOKy0nqpqR-4" value="Rails" style="text;html=1;align=center;verticalAlign=middle;resizable=0;points=[];autosize=1;strokeColor=none;fillColor=none;" parent="1" vertex="1">
          <mxGeometry x="420" y="120" width="50" height="30" as="geometry" />
        </mxCell>
        <mxCell id="GA-WfOW43kbOKy0nqpqR-5" value="Transmitter" style="rounded=1;whiteSpace=wrap;html=1;" parent="1" vertex="1">
          <mxGeometry x="410" y="360" width="70" height="60" as="geometry" />
        </mxCell>
        <mxCell id="GA-WfOW43kbOKy0nqpqR-6" value="" style="rounded=1;whiteSpace=wrap;html=1;fillColor=#f8cecc;strokeColor=#b85450;" parent="1" vertex="1">
          <mxGeometry x="390" y="375" width="20" height="10" as="geometry" />
        </mxCell>
        <mxCell id="GA-WfOW43kbOKy0nqpqR-7" value="" style="rounded=1;whiteSpace=wrap;html=1;fillColor=#d5e8d4;strokeColor=#82b366;" parent="1" vertex="1">
          <mxGeometry x="390" y="385" width="20" height="10" as="geometry" />
        </mxCell>
        <mxCell id="GA-WfOW43kbOKy0nqpqR-8" value="" style="rounded=1;whiteSpace=wrap;html=1;fillColor=#dae8fc;strokeColor=#6c8ebf;" parent="1" vertex="1">
          <mxGeometry x="390" y="395" width="20" height="10" as="geometry" />
        </mxCell>
        <mxCell id="GA-WfOW43kbOKy0nqpqR-9" value="Receiver" style="rounded=1;whiteSpace=wrap;html=1;" parent="1" vertex="1">
          <mxGeometry x="60" y="330" width="70" height="160" as="geometry" />
        </mxCell>
        <mxCell id="GA-WfOW43kbOKy0nqpqR-10" value="" style="rounded=1;whiteSpace=wrap;html=1;fillColor=#f8cecc;strokeColor=#b85450;" parent="1" vertex="1">
          <mxGeometry x="130" y="345" width="20" height="10" as="geometry" />
        </mxCell>
        <mxCell id="GA-WfOW43kbOKy0nqpqR-11" value="" style="rounded=1;whiteSpace=wrap;html=1;fillColor=#d5e8d4;strokeColor=#82b366;" parent="1" vertex="1">
          <mxGeometry x="130" y="355" width="20" height="10" as="geometry" />
        </mxCell>
        <mxCell id="GA-WfOW43kbOKy0nqpqR-12" value="" style="rounded=1;whiteSpace=wrap;html=1;fillColor=#dae8fc;strokeColor=#6c8ebf;" parent="1" vertex="1">
          <mxGeometry x="130" y="365" width="20" height="10" as="geometry" />
        </mxCell>
        <mxCell id="GA-WfOW43kbOKy0nqpqR-13" value="" style="rounded=1;whiteSpace=wrap;html=1;fillColor=#f8cecc;strokeColor=#b85450;" parent="1" vertex="1">
          <mxGeometry x="130" y="390" width="20" height="10" as="geometry" />
        </mxCell>
        <mxCell id="GA-WfOW43kbOKy0nqpqR-14" value="" style="rounded=1;whiteSpace=wrap;html=1;fillColor=#d5e8d4;strokeColor=#82b366;" parent="1" vertex="1">
          <mxGeometry x="130" y="400" width="20" height="10" as="geometry" />
        </mxCell>
        <mxCell id="GA-WfOW43kbOKy0nqpqR-15" value="" style="rounded=1;whiteSpace=wrap;html=1;fillColor=#dae8fc;strokeColor=#6c8ebf;" parent="1" vertex="1">
          <mxGeometry x="130" y="410" width="20" height="10" as="geometry" />
        </mxCell>
        <mxCell id="GA-WfOW43kbOKy0nqpqR-16" value="" style="rounded=1;whiteSpace=wrap;html=1;fillColor=#f8cecc;strokeColor=#b85450;" parent="1" vertex="1">
          <mxGeometry x="130" y="440" width="20" height="10" as="geometry" />
        </mxCell>
        <mxCell id="GA-WfOW43kbOKy0nqpqR-17" value="" style="rounded=1;whiteSpace=wrap;html=1;fillColor=#d5e8d4;strokeColor=#82b366;" parent="1" vertex="1">
          <mxGeometry x="130" y="450" width="20" height="10" as="geometry" />
        </mxCell>
        <mxCell id="GA-WfOW43kbOKy0nqpqR-18" value="" style="rounded=1;whiteSpace=wrap;html=1;fillColor=#dae8fc;strokeColor=#6c8ebf;" parent="1" vertex="1">
          <mxGeometry x="130" y="460" width="20" height="10" as="geometry" />
        </mxCell>
        <mxCell id="GA-WfOW43kbOKy0nqpqR-22" value="Actuator" style="rounded=0;whiteSpace=wrap;html=1;" parent="1" vertex="1">
          <mxGeometry x="70" y="310" width="50" height="20" as="geometry" />
        </mxCell>
        <mxCell id="GA-WfOW43kbOKy0nqpqR-23" value="" style="shape=flexArrow;endArrow=classic;html=1;rounded=0;" parent="1" edge="1">
          <mxGeometry width="50" height="50" relative="1" as="geometry">
            <mxPoint x="480" y="345" as="sourcePoint" />
            <mxPoint x="480" y="275" as="targetPoint" />
          </mxGeometry>
        </mxCell>
        <mxCell id="GA-WfOW43kbOKy0nqpqR-24" value="" style="shape=flexArrow;endArrow=classic;html=1;rounded=0;" parent="1" edge="1">
          <mxGeometry width="50" height="50" relative="1" as="geometry">
            <mxPoint x="480" y="440" as="sourcePoint" />
            <mxPoint x="480" y="510" as="targetPoint" />
          </mxGeometry>
        </mxCell>
        <mxCell id="GA-WfOW43kbOKy0nqpqR-25" value="" style="shape=flexArrow;endArrow=classic;html=1;rounded=0;" parent="1" edge="1">
          <mxGeometry width="50" height="50" relative="1" as="geometry">
            <mxPoint x="60" y="300" as="sourcePoint" />
            <mxPoint x="60" y="230" as="targetPoint" />
          </mxGeometry>
        </mxCell>
        <mxCell id="GA-WfOW43kbOKy0nqpqR-26" value="" style="shape=flexArrow;endArrow=classic;html=1;rounded=0;" parent="1" edge="1">
          <mxGeometry width="50" height="50" relative="1" as="geometry">
            <mxPoint x="60" y="515" as="sourcePoint" />
            <mxPoint x="60" y="585" as="targetPoint" />
          </mxGeometry>
        </mxCell>
        <mxCell id="GA-WfOW43kbOKy0nqpqR-27" value="" style="endArrow=none;dashed=1;html=1;dashPattern=1 3;strokeWidth=2;rounded=0;fillColor=#f8cecc;strokeColor=#b85450;" parent="1" edge="1">
          <mxGeometry width="50" height="50" relative="1" as="geometry">
            <mxPoint x="170" y="380" as="sourcePoint" />
            <mxPoint x="380" y="380" as="targetPoint" />
          </mxGeometry>
        </mxCell>
        <mxCell id="GA-WfOW43kbOKy0nqpqR-28" value="" style="endArrow=none;dashed=1;html=1;dashPattern=1 3;strokeWidth=2;rounded=0;fillColor=#d5e8d4;strokeColor=#82b366;" parent="1" edge="1">
          <mxGeometry width="50" height="50" relative="1" as="geometry">
            <mxPoint x="170" y="390" as="sourcePoint" />
            <mxPoint x="380" y="390" as="targetPoint" />
          </mxGeometry>
        </mxCell>
        <mxCell id="GA-WfOW43kbOKy0nqpqR-29" value="" style="endArrow=none;dashed=1;html=1;dashPattern=1 3;strokeWidth=2;rounded=0;fillColor=#dae8fc;strokeColor=#6c8ebf;" parent="1" edge="1">
          <mxGeometry width="50" height="50" relative="1" as="geometry">
            <mxPoint x="170" y="399.33" as="sourcePoint" />
            <mxPoint x="380" y="399.33" as="targetPoint" />
          </mxGeometry>
        </mxCell>
      </root>
    </mxGraphModel>
  </diagram>
  <diagram id="8OXMEBVEtvcSXI_uPyFj" name="Page-2">
    <mxGraphModel dx="527" dy="386" grid="1" gridSize="10" guides="1" tooltips="1" connect="1" arrows="1" fold="1" page="1" pageScale="1" pageWidth="850" pageHeight="1100" math="0" shadow="0">
      <root>
        <mxCell id="0" />
        <mxCell id="1" parent="0" />
        <mxCell id="Y1b2RJu-7i5gT96mWwFI-1" value="" style="rounded=0;whiteSpace=wrap;html=1;" vertex="1" parent="1">
          <mxGeometry x="10" y="90" width="520" height="610" as="geometry" />
        </mxCell>
        <mxCell id="Y1b2RJu-7i5gT96mWwFI-2" value="" style="rounded=1;whiteSpace=wrap;html=1;" vertex="1" parent="1">
          <mxGeometry x="90" y="150" width="10" height="520" as="geometry" />
        </mxCell>
        <mxCell id="Y1b2RJu-7i5gT96mWwFI-3" value="" style="rounded=1;whiteSpace=wrap;html=1;" vertex="1" parent="1">
          <mxGeometry x="440" y="150" width="10" height="520" as="geometry" />
        </mxCell>
        <mxCell id="Y1b2RJu-7i5gT96mWwFI-4" value="Rails" style="text;html=1;align=center;verticalAlign=middle;resizable=0;points=[];autosize=1;strokeColor=none;fillColor=none;" vertex="1" parent="1">
          <mxGeometry x="70" y="120" width="50" height="30" as="geometry" />
        </mxCell>
        <mxCell id="Y1b2RJu-7i5gT96mWwFI-5" value="Rails" style="text;html=1;align=center;verticalAlign=middle;resizable=0;points=[];autosize=1;strokeColor=none;fillColor=none;" vertex="1" parent="1">
          <mxGeometry x="420" y="120" width="50" height="30" as="geometry" />
        </mxCell>
        <mxCell id="Y1b2RJu-7i5gT96mWwFI-6" value="Transmitter" style="rounded=1;whiteSpace=wrap;html=1;" vertex="1" parent="1">
          <mxGeometry x="410" y="360" width="70" height="60" as="geometry" />
        </mxCell>
        <mxCell id="Y1b2RJu-7i5gT96mWwFI-8" value="" style="rounded=1;whiteSpace=wrap;html=1;fillColor=#dae8fc;strokeColor=#6c8ebf;" vertex="1" parent="1">
          <mxGeometry x="390" y="385" width="20" height="10" as="geometry" />
        </mxCell>
        <mxCell id="Y1b2RJu-7i5gT96mWwFI-10" value="Receiver" style="rounded=1;whiteSpace=wrap;html=1;" vertex="1" parent="1">
          <mxGeometry x="60" y="330" width="70" height="160" as="geometry" />
        </mxCell>
        <mxCell id="Y1b2RJu-7i5gT96mWwFI-12" value="" style="rounded=1;whiteSpace=wrap;html=1;fillColor=#f5f5f5;strokeColor=#666666;gradientColor=#b3b3b3;" vertex="1" parent="1">
          <mxGeometry x="130" y="355" width="20" height="10" as="geometry" />
        </mxCell>
        <mxCell id="Y1b2RJu-7i5gT96mWwFI-15" value="" style="rounded=1;whiteSpace=wrap;html=1;fillColor=#f5f5f5;strokeColor=#666666;gradientColor=#b3b3b3;" vertex="1" parent="1">
          <mxGeometry x="130" y="400" width="20" height="10" as="geometry" />
        </mxCell>
        <mxCell id="Y1b2RJu-7i5gT96mWwFI-18" value="" style="rounded=1;whiteSpace=wrap;html=1;fillColor=#f5f5f5;strokeColor=#666666;gradientColor=#b3b3b3;" vertex="1" parent="1">
          <mxGeometry x="130" y="450" width="20" height="10" as="geometry" />
        </mxCell>
        <mxCell id="Y1b2RJu-7i5gT96mWwFI-20" value="Actuator" style="rounded=0;whiteSpace=wrap;html=1;" vertex="1" parent="1">
          <mxGeometry x="70" y="310" width="50" height="20" as="geometry" />
        </mxCell>
        <mxCell id="Y1b2RJu-7i5gT96mWwFI-21" value="" style="shape=flexArrow;endArrow=classic;html=1;rounded=0;" edge="1" parent="1">
          <mxGeometry width="50" height="50" relative="1" as="geometry">
            <mxPoint x="480" y="345" as="sourcePoint" />
            <mxPoint x="480" y="275" as="targetPoint" />
          </mxGeometry>
        </mxCell>
        <mxCell id="Y1b2RJu-7i5gT96mWwFI-22" value="" style="shape=flexArrow;endArrow=classic;html=1;rounded=0;" edge="1" parent="1">
          <mxGeometry width="50" height="50" relative="1" as="geometry">
            <mxPoint x="480" y="440" as="sourcePoint" />
            <mxPoint x="480" y="510" as="targetPoint" />
          </mxGeometry>
        </mxCell>
        <mxCell id="Y1b2RJu-7i5gT96mWwFI-23" value="" style="shape=flexArrow;endArrow=classic;html=1;rounded=0;" edge="1" parent="1">
          <mxGeometry width="50" height="50" relative="1" as="geometry">
            <mxPoint x="60" y="300" as="sourcePoint" />
            <mxPoint x="60" y="230" as="targetPoint" />
          </mxGeometry>
        </mxCell>
        <mxCell id="Y1b2RJu-7i5gT96mWwFI-24" value="" style="shape=flexArrow;endArrow=classic;html=1;rounded=0;" edge="1" parent="1">
          <mxGeometry width="50" height="50" relative="1" as="geometry">
            <mxPoint x="60" y="515" as="sourcePoint" />
            <mxPoint x="60" y="585" as="targetPoint" />
          </mxGeometry>
        </mxCell>
        <mxCell id="Y1b2RJu-7i5gT96mWwFI-26" value="" style="endArrow=none;dashed=1;html=1;dashPattern=1 3;strokeWidth=2;rounded=0;fillColor=#dae8fc;strokeColor=#6c8ebf;" edge="1" parent="1">
          <mxGeometry width="50" height="50" relative="1" as="geometry">
            <mxPoint x="170" y="390" as="sourcePoint" />
            <mxPoint x="380" y="390" as="targetPoint" />
          </mxGeometry>
        </mxCell>
      </root>
    </mxGraphModel>
  </diagram>
</mxfile>
